<?xml version="1.0" standalone="no"?>
<!DOCTYPE svg PUBLIC "-//W3C//DTD SVG 20010904//EN"
 "http://www.w3.org/TR/2001/REC-SVG-20010904/DTD/svg10.dtd">
<svg version="1.0" xmlns="http://www.w3.org/2000/svg"
 width="32.000000pt" height="32.000000pt" viewBox="0 0 32.000000 32.000000"
 preserveAspectRatio="xMidYMid meet">

<g transform="translate(0.000000,32.000000) scale(0.100000,-0.100000)"
fill="#000000" stroke="none">
<path d="M100 290 c-21 -23 -37 -30 -64 -30 l-36 0 0 -130 0 -130 120 0 c181
0 200 16 200 170 l0 90 -36 0 c-27 0 -43 7 -64 30 -20 21 -37 30 -60 30 -23 0
-40 -9 -60 -30z m104 -9 c17 -18 16 -19 -13 -26 -17 -4 -45 -4 -62 0 -29 7
-30 8 -13 26 9 10 29 19 44 19 15 0 35 -9 44 -19z m106 -77 l0 -42 -29 29
c-16 16 -36 29 -45 29 -21 0 -66 -21 -66 -31 0 -5 -16 1 -35 12 -41 24 -74 20
-105 -13 l-20 -22 0 41 0 41 150 0 150 -1 0 -43z m-172 -16 c19 -16 15 -66 -7
-78 -50 -26 -105 1 -99 49 5 44 66 61 106 29z m140 0 c17 -14 15 -53 -4 -72
-19 -19 -64 -21 -88 -3 -12 9 -17 23 -14 42 5 48 64 66 106 33z m-187 -101
c19 0 42 -7 52 -15 15 -14 19 -13 35 1 10 10 35 17 55 17 27 0 41 7 56 26 l21
27 0 -36 c0 -23 -8 -46 -24 -64 -24 -28 -26 -28 -150 -31 l-126 -4 0 67 0 66
23 -27 c18 -20 33 -27 58 -27z m85 -5 c-12 -12 -19 -13 -27 -5 -16 16 -3 32
22 26 19 -5 19 -7 5 -21z"/>
<path d="M100 170 c0 -5 -9 -10 -20 -10 -26 0 -26 -26 -1 -40 34 -18 68 10 55
45 -7 17 -34 21 -34 5z"/>
<path d="M220 171 c0 -6 -9 -11 -20 -11 -11 0 -20 -4 -20 -9 0 -11 28 -41 39
-41 18 0 43 28 39 46 -3 20 -38 33 -38 15z"/>
</g>
</svg>
